<svg version="1.2" xmlns="http://www.w3.org/2000/svg" viewBox="0 0 815 815" width="815" height="815">
	<title>tierbuilder logo</title>
	<style>
		.s0 { fill: #000000 } 
		.s1 { fill: #ff7f7f } 
		.s2 { fill: #ffbf7f } 
		.s3 { fill: #7fff7f } 
		.s4 { fill: #ffff7f } 
	</style>
	<path id="Shape 4" class="s0" d="m0 0h815v815h-815z"/>
	<path id="Shape 1" class="s1" d="m5 5h400v400h-400zm0 0h400v400h-400zm0 0h400v400h-400z"/>
	<path id="T" class="s0" aria-label="T"  d="m338.7 73.3v67.6q-50.6-1.6-98.2-1.9v168h-80.5v-168q-48 0.3-97.9 1.9v-67.6z"/>
	<path id="Shape 1 copy" class="s2" d="m410 5h400v400h-400zm0 0h400v400h-400zm0 0h400v400h-400z"/>
	<path id="I" class="s0" aria-label="I"  d="m708.9 75.3v64.1q-38.3-2-56.6-2.3v110.1q18.6-0.3 56.6-2.3v64.1h-187v-64.1q37 2 56.3 2.3v-110.1q-19.3 0.3-56.3 2.3v-64.1z"/>
	<path id="Shape 1 copy 2" class="s3" d="m410 410h400v400h-400zm0 0h400v400h-400zm0 0h400v400h-400z"/>
	<path id="R" class="s0" aria-label="R"  d="m743.7 557.2q0 28-13.9 47.3-13.5 19.3-46.7 28 3.9 5.2 5.5 8.1l52.2 72.4h-87.6q-14.2-26.4-44.7-74.7h-47.4v74.7h-75.9q2.5-62.4 2.5-116.9 0-54.4-2.5-116.8h75.9v0.3h66q65.1 0 90.8 20.9 25.8 21 25.8 56.7zm-139.1-15.8h-43.5v36.7h43.5q27.4 0 41.2-1.6 14.2-1.9 19.6-5.8 5.5-3.8 5.5-11.3 0-7-5.1-10.9-5.2-3.9-19.4-5.5-14.1-1.6-41.8-1.6z"/>
	<path id="Shape 1 copy 3" class="s4" d="m5 410h400v400h-400zm0 0h400v400h-400zm0 0h400v400h-400z"/>
	<path id="E" class="s0" aria-label="E"  d="m152.7 623.6v33.5q122.3-0.7 177.4-3.5-2.3 13.1-2.9 27.3-0.3 13.9-0.3 35.1h-250.2q2.6-62.4 2.6-116.9 0-54.4-2.6-116.8h250.2v58.3h-174.2v30.9q15.5 0.3 45.7 0.3 51.2 0 105.9-1.9v55.3q-54.7-1.9-105.9-1.9-30.2 0-45.7 0.3z"/>
</svg>